IKResults
version=1
nRows=8
nColumns=40
inDegrees=yes

Units are S.I. units (second, meters, Newtons, ...)
Angles are in degrees.

endheader
time	pelvis_tilt	pelvis_list	pelvis_rotation	pelvis_tx	pelvis_ty	pelvis_tz	hip_flexion_r	hip_adduction_r	hip_rotation_r	knee_angle_r	knee_angle_r_beta	ankle_angle_r	subtalar_angle_r	mtp_angle_r	hip_flexion_l	hip_adduction_l	hip_rotation_l	knee_angle_l	knee_angle_l_beta	ankle_angle_l	subtalar_angle_l	mtp_angle_l	lumbar_extension	lumbar_bending	lumbar_rotation	arm_flex_r	arm_add_r	arm_rot_r	elbow_flex_r	pro_sup_r	wrist_flex_r	wrist_dev_r	arm_flex_l	arm_add_l	arm_rot_l	elbow_flex_l	pro_sup_l	wrist_flex_l	wrist_dev_l
      0.00000000	    -10.63145125	     -8.19753894	      2.00107960	     -1.75092836	      0.88281714	      0.21708298	     54.31389042	      4.45404837	    -10.31342237	    -62.88864539	     -1.09761392	      2.63124048	    -17.10381304	     20.86305347	    -15.93749305	      5.90784230	      3.30433834	    -21.28198691	     -0.37144074	    -21.17038284	      5.02056765	     -4.06137801	    -15.47835026	      9.11151314	     -8.57207432	    -39.99266970	    -30.46610127	     -0.96069269	    124.43195484	     89.95437384	      0.00000000	      0.00000000	     -8.04026076	     22.05175257	    -12.27702448	    138.42689531	     89.95437384	      0.00000000	      0.00000000
      0.01000000	    -11.56026418	     -8.66754755	      1.38013371	     -1.71393285	      0.88740582	      0.21764298	     54.78323336	      5.16258915	    -10.66994454	    -57.30067730	     -1.00008548	      0.05378099	    -15.41769256	     21.12531272	    -16.66579197	      6.37599381	      3.48226445	    -19.83289991	     -0.34614940	    -27.62761856	      6.16043314	     -3.38545795	    -14.11685999	      9.80595645	     -8.60889059	    -40.96311804	    -30.92864604	     -1.10684942	    124.97043681	     89.95437384	      0.00000000	      0.00000000	     -8.21550727	     22.22039037	    -12.68867683	    139.10599543	     89.95437384	      0.00000000	      0.00000000
      0.02000000	    -11.00662397	     -9.16448479	      0.12289360	     -1.67445873	      0.89279413	      0.21930039	     53.22307143	      6.65024535	    -10.75558809	    -51.93769596	     -0.90648380	     -2.67724085	    -14.28925281	     20.76105506	    -19.67440827	      6.79875038	      6.17320615	    -17.29332258	     -0.30182542	    -32.11017241	      6.66795530	     -3.12526280	    -14.45856554	     10.40235131	     -7.79913897	    -41.74131423	    -31.63943349	     -1.10442777	    125.70049729	     89.95437384	      0.00000000	      0.00000000	     -8.74759993	     22.35910217	    -12.99150280	    139.79037016	     89.95437384	      0.00000000	      0.00000000
      0.03000000	    -11.02714637	     -8.98895302	     -0.62476554	     -1.63672922	      0.89628614	      0.21987350	     52.24531493	      7.03080084	    -10.68356062	    -47.10771643	     -0.82218475	     -5.66120288	    -11.97949735	     16.82101961	    -20.97991587	      6.19437949	      5.69055332	    -16.77895895	     -0.29284808	    -32.86889349	      7.98020645	     -2.33090731	    -14.12457903	     10.33996566	     -7.36156235	    -42.34964204	    -32.03061762	     -1.10006038	    126.19280323	     89.95437384	      0.00000000	      0.00000000	     -8.78567863	     22.57246314	    -13.54788723	    139.96509860	     89.95437384	      0.00000000	      0.00000000
      0.04000000	    -11.18476907	     -8.79130735	     -1.21772353	     -1.59960812	      0.89834297	      0.22083846	     51.39400290	      7.37008661	    -10.51538810	    -43.03079331	     -0.75102902	     -7.89434097	     -9.35180455	     16.71193933	    -21.16136571	      5.66127144	      4.91629192	    -18.15729561	     -0.31690459	    -30.70110305	      9.15378494	     -2.24098599	    -13.65838631	     10.19503621	     -7.04025126	    -42.52284602	    -32.26484523	     -0.86062729	    126.52717402	     89.95437384	      0.00000000	      0.00000000	     -8.92125975	     22.93713438	    -14.06837473	    140.01261278	     89.95437384	      0.00000000	      0.00000000
      0.05000000	    -11.26319828	     -8.49534208	     -1.51085291	     -1.56300861	      0.89945204	      0.22171508	     50.41446882	      7.46502082	    -10.47418581	    -39.78440481	     -0.69436885	     -9.19458479	     -7.25295559	     16.29351871	    -20.70977343	      4.99189923	      3.21655959	    -20.66991128	     -0.36075801	    -27.33082628	     10.43811630	     -2.12715506	    -13.27935275	      9.91753414	     -6.85789284	    -42.29974770	    -32.43601802	     -0.41413809	    126.65236065	     89.95437384	      0.00000000	      0.00000000	     -9.09272514	     23.37840587	    -14.67505816	    139.77147224	     89.95437384	      0.00000000	      0.00000000
      0.06000000	    -11.07376130	     -7.97402529	     -1.83105748	     -1.52633668	      0.90012998	      0.22218257	     49.18901291	      7.26387413	    -10.60309577	    -37.80399280	     -0.65980414	    -10.01215503	     -5.56179693	     15.79811327	    -20.20719520	      3.94927984	      1.21429481	    -23.55562603	     -0.41112323	    -24.55208250	     11.79892387	     -1.88769606	    -13.23403340	      9.41057031	     -6.59305034	    -41.65960536	    -32.59887300	      0.07666621	    126.56016245	     89.95437384	      0.00000000	      0.00000000	     -9.27606068	     23.65213700	    -15.04330175	    139.28966397	     89.95437384	      0.00000000	      0.00000000
      0.07000000	    -10.40464022	     -7.40414251	     -2.25259723	     -1.48958680	      0.90069861	      0.22303325	     47.45752956	      7.17561726	    -10.51554276	    -36.97265864	     -0.64529463	    -10.86072042	     -4.64022187	     15.61705538	    -19.88197298	      2.85332798	     -0.17654300	    -26.79157724	     -0.46760123	    -24.32838350	     13.04367330	     -1.60883207	    -13.82140032	      8.76851622	     -5.97635445	    -40.69026276	    -32.55001479	      0.64795342	    126.38919776	     89.95437384	      0.00000000	      0.00000000	     -9.37721140	     23.94372279	    -15.26424716	    138.61460567	     89.95437384	      0.00000000	      0.00000000
